<svg xmlns="http://www.w3.org/2000/svg" width="64" height="64" viewBox="0 0 64 64">
  <defs>
    <linearGradient id="bg" x1="0" y1="0" x2="1" y2="1">
      <stop offset="0%" stop-color="#2563eb"/>
      <stop offset="100%" stop-color="#3b82f6"/>
    </linearGradient>
  </defs>
  <!-- 背景の角丸正方形 -->
  <rect width="64" height="64" rx="14" fill="url(#bg)"/>
  <!-- 吹き出し本体 -->
  <path d="M12 16 C12 13 14 12 17 12 L47 12 C50 12 52 13 52 16 L52 36 C52 39 50 40 47 40 L28 40 L20 52 L20 40 L17 40 C14 40 12 39 12 36 Z" fill="white"/>
  <!-- テキスト行（SNS文章のイメージ） -->
  <rect x="19" y="19" width="26" height="3" rx="1.5" fill="#3b82f6"/>
  <rect x="19" y="26" width="18" height="3" rx="1.5" fill="#93c5fd"/>
  <rect x="19" y="33" width="22" height="3" rx="1.5" fill="#93c5fd"/>
</svg>
